<svg width="143" height="24" viewBox="0 0 805 135" fill="#57586E" xmlns="http://www.w3.org/2000/svg">
<defs><g/></defs><g fill="#000000" fill-opacity="1"><g transform="translate(102.201723, 186.940065)"><g><path d="M 7.953125 -19.734375 L 0.140625 -19.734375 L 0.140625 -25.4375 L 22.9375 -25.4375 L 22.9375 -19.734375 L 15.15625 -19.734375 L 15.15625 0 L 7.953125 0 Z M 7.953125 -19.734375 "/></g></g></g><g fill="#000000" fill-opacity="1"><g transform="translate(128.439785, 186.940065)"><g><path d="M 15.375 0.515625 C 12.6875 0.515625 10.269531 -0.0507812 8.125 -1.1875 C 5.976562 -2.332031 4.289062 -3.910156 3.0625 -5.921875 C 1.84375 -7.929688 1.234375 -10.195312 1.234375 -12.71875 C 1.234375 -15.238281 1.84375 -17.503906 3.0625 -19.515625 C 4.289062 -21.523438 5.976562 -23.097656 8.125 -24.234375 C 10.269531 -25.378906 12.6875 -25.953125 15.375 -25.953125 C 18.0625 -25.953125 20.476562 -25.378906 22.625 -24.234375 C 24.769531 -23.097656 26.453125 -21.523438 27.671875 -19.515625 C 28.898438 -17.503906 29.515625 -15.238281 29.515625 -12.71875 C 29.515625 -10.195312 28.898438 -7.929688 27.671875 -5.921875 C 26.453125 -3.910156 24.769531 -2.332031 22.625 -1.1875 C 20.476562 -0.0507812 18.0625 0.515625 15.375 0.515625 Z M 15.375 -5.453125 C 16.65625 -5.453125 17.816406 -5.753906 18.859375 -6.359375 C 19.898438 -6.960938 20.722656 -7.816406 21.328125 -8.921875 C 21.941406 -10.023438 22.25 -11.289062 22.25 -12.71875 C 22.25 -14.144531 21.941406 -15.410156 21.328125 -16.515625 C 20.722656 -17.617188 19.898438 -18.472656 18.859375 -19.078125 C 17.816406 -19.679688 16.65625 -19.984375 15.375 -19.984375 C 14.09375 -19.984375 12.929688 -19.679688 11.890625 -19.078125 C 10.847656 -18.472656 10.019531 -17.617188 9.40625 -16.515625 C 8.800781 -15.410156 8.5 -14.144531 8.5 -12.71875 C 8.5 -11.289062 8.800781 -10.023438 9.40625 -8.921875 C 10.019531 -7.816406 10.847656 -6.960938 11.890625 -6.359375 C 12.929688 -5.753906 14.09375 -5.453125 15.375 -5.453125 Z M 15.375 -5.453125 "/></g></g></g><g fill="#000000" fill-opacity="1"><g transform="translate(162.345548, 186.940065)"><g><path d="M 12.359375 -9.234375 L 9.671875 -6.359375 L 9.671875 0 L 2.546875 0 L 2.546875 -25.4375 L 9.671875 -25.4375 L 9.671875 -14.859375 L 19.515625 -25.4375 L 27.4375 -25.4375 L 17.046875 -14.171875 L 27.984375 0 L 19.625 0 Z M 12.359375 -9.234375 "/></g></g></g><g fill="#000000" fill-opacity="1"><g transform="translate(192.835364, 186.940065)"><g><path d="M 19.59375 -4.9375 L 8.828125 -4.9375 L 6.828125 0 L -0.515625 0 L 10.71875 -25.4375 L 17.8125 -25.4375 L 29.078125 0 L 21.59375 0 Z M 17.484375 -10.25 L 14.203125 -18.390625 L 10.9375 -10.25 Z M 17.484375 -10.25 "/></g></g></g><g fill="#000000" fill-opacity="1"><g transform="translate(224.560742, 186.940065)"><g><path d="M 26.75 -25.4375 L 26.75 0 L 20.828125 0 L 9.59375 -13.5625 L 9.59375 0 L 2.546875 0 L 2.546875 -25.4375 L 8.46875 -25.4375 L 19.703125 -11.890625 L 19.703125 -25.4375 Z M 26.75 -25.4375 "/></g></g></g><g fill="#000000" fill-opacity="1"><g transform="translate(257.012911, 186.940065)"><g><path d="M 2.546875 -25.4375 L 9.734375 -25.4375 L 9.734375 0 L 2.546875 0 Z M 2.546875 -25.4375 "/></g></g></g><g fill="#000000" fill-opacity="1"><g transform="translate(81.572087, 211.558917)"><g><path d="M 1.109375 -7.421875 L 2.171875 -7.421875 L 2.171875 0 L 1.109375 0 Z M 1.109375 -7.421875 "/></g></g></g><g fill="#000000" fill-opacity="1"><g transform="translate(87.49202, 211.558917)"><g><path d="M 7.5 -7.421875 L 7.5 0 L 6.625 0 L 2.171875 -5.53125 L 2.171875 0 L 1.109375 0 L 1.109375 -7.421875 L 1.984375 -7.421875 L 6.4375 -1.890625 L 6.4375 -7.421875 Z M 7.5 -7.421875 "/></g></g></g><g fill="#000000" fill-opacity="1"><g transform="translate(98.736236, 211.558917)"><g><path d="M 2.59375 -6.5 L 0.046875 -6.5 L 0.046875 -7.421875 L 6.1875 -7.421875 L 6.1875 -6.5 L 3.640625 -6.5 L 3.640625 0 L 2.59375 0 Z M 2.59375 -6.5 "/></g></g></g><g fill="#000000" fill-opacity="1"><g transform="translate(107.594069, 211.558917)"><g><path d="M 6.5 -0.921875 L 6.5 0 L 1.109375 0 L 1.109375 -7.421875 L 6.359375 -7.421875 L 6.359375 -6.5 L 2.171875 -6.5 L 2.171875 -4.21875 L 5.90625 -4.21875 L 5.90625 -3.328125 L 2.171875 -3.328125 L 2.171875 -0.921875 Z M 6.5 -0.921875 "/></g></g></g><g fill="#000000" fill-opacity="1"><g transform="translate(117.332218, 211.558917)"><g><path d="M 6.078125 0 L 4.484375 -2.28125 C 4.285156 -2.269531 4.128906 -2.265625 4.015625 -2.265625 L 2.171875 -2.265625 L 2.171875 0 L 1.109375 0 L 1.109375 -7.421875 L 4.015625 -7.421875 C 4.972656 -7.421875 5.726562 -7.191406 6.28125 -6.734375 C 6.832031 -6.273438 7.109375 -5.644531 7.109375 -4.84375 C 7.109375 -4.269531 6.96875 -3.78125 6.6875 -3.375 C 6.40625 -2.96875 6 -2.675781 5.46875 -2.5 L 7.234375 0 Z M 3.984375 -3.15625 C 4.648438 -3.15625 5.160156 -3.300781 5.515625 -3.59375 C 5.867188 -3.882812 6.046875 -4.300781 6.046875 -4.84375 C 6.046875 -5.375 5.867188 -5.78125 5.515625 -6.0625 C 5.160156 -6.351562 4.648438 -6.5 3.984375 -6.5 L 2.171875 -6.5 L 2.171875 -3.15625 Z M 3.984375 -3.15625 "/></g></g></g><g fill="#000000" fill-opacity="1"><g transform="translate(127.674914, 211.558917)"><g><path d="M 4.015625 -7.421875 C 4.972656 -7.421875 5.726562 -7.191406 6.28125 -6.734375 C 6.832031 -6.273438 7.109375 -5.644531 7.109375 -4.84375 C 7.109375 -4.03125 6.832031 -3.394531 6.28125 -2.9375 C 5.726562 -2.476562 4.972656 -2.25 4.015625 -2.25 L 2.171875 -2.25 L 2.171875 0 L 1.109375 0 L 1.109375 -7.421875 Z M 3.984375 -3.171875 C 4.648438 -3.171875 5.160156 -3.3125 5.515625 -3.59375 C 5.867188 -3.882812 6.046875 -4.300781 6.046875 -4.84375 C 6.046875 -5.375 5.867188 -5.78125 5.515625 -6.0625 C 5.160156 -6.351562 4.648438 -6.5 3.984375 -6.5 L 2.171875 -6.5 L 2.171875 -3.171875 Z M 3.984375 -3.171875 "/></g></g></g><g fill="#000000" fill-opacity="1"><g transform="translate(137.964579, 211.558917)"><g><path d="M 6.078125 0 L 4.484375 -2.28125 C 4.285156 -2.269531 4.128906 -2.265625 4.015625 -2.265625 L 2.171875 -2.265625 L 2.171875 0 L 1.109375 0 L 1.109375 -7.421875 L 4.015625 -7.421875 C 4.972656 -7.421875 5.726562 -7.191406 6.28125 -6.734375 C 6.832031 -6.273438 7.109375 -5.644531 7.109375 -4.84375 C 7.109375 -4.269531 6.96875 -3.78125 6.6875 -3.375 C 6.40625 -2.96875 6 -2.675781 5.46875 -2.5 L 7.234375 0 Z M 3.984375 -3.15625 C 4.648438 -3.15625 5.160156 -3.300781 5.515625 -3.59375 C 5.867188 -3.882812 6.046875 -4.300781 6.046875 -4.84375 C 6.046875 -5.375 5.867188 -5.78125 5.515625 -6.0625 C 5.160156 -6.351562 4.648438 -6.5 3.984375 -6.5 L 2.171875 -6.5 L 2.171875 -3.15625 Z M 3.984375 -3.15625 "/></g></g></g><g fill="#000000" fill-opacity="1"><g transform="translate(148.307276, 211.558917)"><g><path d="M 6.5 -0.921875 L 6.5 0 L 1.109375 0 L 1.109375 -7.421875 L 6.359375 -7.421875 L 6.359375 -6.5 L 2.171875 -6.5 L 2.171875 -4.21875 L 5.90625 -4.21875 L 5.90625 -3.328125 L 2.171875 -3.328125 L 2.171875 -0.921875 Z M 6.5 -0.921875 "/></g></g></g><g fill="#000000" fill-opacity="1"><g transform="translate(158.045425, 211.558917)"><g><path d="M 2.59375 -6.5 L 0.046875 -6.5 L 0.046875 -7.421875 L 6.1875 -7.421875 L 6.1875 -6.5 L 3.640625 -6.5 L 3.640625 0 L 2.59375 0 Z M 2.59375 -6.5 "/></g></g></g><g fill="#000000" fill-opacity="1"><g transform="translate(166.903257, 211.558917)"><g><path d="M 6.5 -0.921875 L 6.5 0 L 1.109375 0 L 1.109375 -7.421875 L 6.359375 -7.421875 L 6.359375 -6.5 L 2.171875 -6.5 L 2.171875 -4.21875 L 5.90625 -4.21875 L 5.90625 -3.328125 L 2.171875 -3.328125 L 2.171875 -0.921875 Z M 6.5 -0.921875 "/></g></g></g><g fill="#000000" fill-opacity="1"><g transform="translate(176.641406, 211.558917)"><g><path d="M 6.078125 0 L 4.484375 -2.28125 C 4.285156 -2.269531 4.128906 -2.265625 4.015625 -2.265625 L 2.171875 -2.265625 L 2.171875 0 L 1.109375 0 L 1.109375 -7.421875 L 4.015625 -7.421875 C 4.972656 -7.421875 5.726562 -7.191406 6.28125 -6.734375 C 6.832031 -6.273438 7.109375 -5.644531 7.109375 -4.84375 C 7.109375 -4.269531 6.96875 -3.78125 6.6875 -3.375 C 6.40625 -2.96875 6 -2.675781 5.46875 -2.5 L 7.234375 0 Z M 3.984375 -3.15625 C 4.648438 -3.15625 5.160156 -3.300781 5.515625 -3.59375 C 5.867188 -3.882812 6.046875 -4.300781 6.046875 -4.84375 C 6.046875 -5.375 5.867188 -5.78125 5.515625 -6.0625 C 5.160156 -6.351562 4.648438 -6.5 3.984375 -6.5 L 2.171875 -6.5 L 2.171875 -3.15625 Z M 3.984375 -3.15625 "/></g></g></g><g fill="#000000" fill-opacity="1"><g transform="translate(186.984097, 211.558917)"><g/></g></g><g fill="#000000" fill-opacity="1"><g transform="translate(192.469184, 211.558917)"><g><path d="M 3.28125 0.078125 C 2.71875 0.078125 2.175781 -0.00390625 1.65625 -0.171875 C 1.132812 -0.347656 0.726562 -0.570312 0.4375 -0.84375 L 0.828125 -1.671875 C 1.109375 -1.421875 1.46875 -1.210938 1.90625 -1.046875 C 2.351562 -0.890625 2.8125 -0.8125 3.28125 -0.8125 C 3.894531 -0.8125 4.351562 -0.914062 4.65625 -1.125 C 4.957031 -1.332031 5.109375 -1.613281 5.109375 -1.96875 C 5.109375 -2.21875 5.023438 -2.421875 4.859375 -2.578125 C 4.691406 -2.742188 4.488281 -2.867188 4.25 -2.953125 C 4.007812 -3.035156 3.664062 -3.128906 3.21875 -3.234375 C 2.65625 -3.367188 2.203125 -3.503906 1.859375 -3.640625 C 1.515625 -3.773438 1.21875 -3.976562 0.96875 -4.25 C 0.726562 -4.53125 0.609375 -4.910156 0.609375 -5.390625 C 0.609375 -5.785156 0.710938 -6.140625 0.921875 -6.453125 C 1.128906 -6.773438 1.445312 -7.03125 1.875 -7.21875 C 2.300781 -7.414062 2.828125 -7.515625 3.453125 -7.515625 C 3.890625 -7.515625 4.320312 -7.457031 4.75 -7.34375 C 5.175781 -7.226562 5.539062 -7.066406 5.84375 -6.859375 L 5.5 -6 C 5.1875 -6.195312 4.851562 -6.347656 4.5 -6.453125 C 4.144531 -6.554688 3.796875 -6.609375 3.453125 -6.609375 C 2.859375 -6.609375 2.410156 -6.5 2.109375 -6.28125 C 1.804688 -6.0625 1.65625 -5.78125 1.65625 -5.4375 C 1.65625 -5.175781 1.738281 -4.96875 1.90625 -4.8125 C 2.082031 -4.65625 2.296875 -4.53125 2.546875 -4.4375 C 2.796875 -4.351562 3.132812 -4.257812 3.5625 -4.15625 C 4.125 -4.019531 4.570312 -3.882812 4.90625 -3.75 C 5.25 -3.613281 5.539062 -3.410156 5.78125 -3.140625 C 6.03125 -2.867188 6.15625 -2.5 6.15625 -2.03125 C 6.15625 -1.632812 6.046875 -1.273438 5.828125 -0.953125 C 5.617188 -0.640625 5.296875 -0.390625 4.859375 -0.203125 C 4.429688 -0.015625 3.90625 0.078125 3.28125 0.078125 Z M 3.28125 0.078125 "/></g></g></g><g fill="#000000" fill-opacity="1"><g transform="translate(201.687639, 211.558917)"><g><path d="M 4.4375 0.078125 C 3.695312 0.078125 3.023438 -0.0820312 2.421875 -0.40625 C 1.828125 -0.738281 1.359375 -1.191406 1.015625 -1.765625 C 0.679688 -2.335938 0.515625 -2.988281 0.515625 -3.71875 C 0.515625 -4.4375 0.679688 -5.082031 1.015625 -5.65625 C 1.359375 -6.238281 1.828125 -6.691406 2.421875 -7.015625 C 3.023438 -7.347656 3.703125 -7.515625 4.453125 -7.515625 C 5.023438 -7.515625 5.550781 -7.414062 6.03125 -7.21875 C 6.519531 -7.019531 6.929688 -6.734375 7.265625 -6.359375 L 6.578125 -5.6875 C 6.015625 -6.269531 5.316406 -6.5625 4.484375 -6.5625 C 3.929688 -6.5625 3.429688 -6.4375 2.984375 -6.1875 C 2.546875 -5.945312 2.195312 -5.609375 1.9375 -5.171875 C 1.6875 -4.734375 1.5625 -4.25 1.5625 -3.71875 C 1.5625 -3.175781 1.6875 -2.6875 1.9375 -2.25 C 2.195312 -1.820312 2.546875 -1.484375 2.984375 -1.234375 C 3.429688 -0.984375 3.929688 -0.859375 4.484375 -0.859375 C 5.316406 -0.859375 6.015625 -1.15625 6.578125 -1.75 L 7.265625 -1.078125 C 6.929688 -0.703125 6.519531 -0.414062 6.03125 -0.21875 C 5.550781 -0.0195312 5.019531 0.078125 4.4375 0.078125 Z M 4.4375 0.078125 "/></g></g></g><g fill="#000000" fill-opacity="1"><g transform="translate(211.987912, 211.558917)"><g><path d="M 7.5 -7.421875 L 7.5 0 L 6.4375 0 L 6.4375 -3.3125 L 2.171875 -3.3125 L 2.171875 0 L 1.109375 0 L 1.109375 -7.421875 L 2.171875 -7.421875 L 2.171875 -4.234375 L 6.4375 -4.234375 L 6.4375 -7.421875 Z M 7.5 -7.421875 "/></g></g></g><g fill="#000000" fill-opacity="1"><g transform="translate(223.232122, 211.558917)"><g><path d="M 6.5 -0.921875 L 6.5 0 L 1.109375 0 L 1.109375 -7.421875 L 6.359375 -7.421875 L 6.359375 -6.5 L 2.171875 -6.5 L 2.171875 -4.21875 L 5.90625 -4.21875 L 5.90625 -3.328125 L 2.171875 -3.328125 L 2.171875 -0.921875 Z M 6.5 -0.921875 "/></g></g></g><g fill="#000000" fill-opacity="1"><g transform="translate(232.970277, 211.558917)"><g><path d="M 1.109375 -7.421875 L 4.25 -7.421875 C 5.03125 -7.421875 5.722656 -7.265625 6.328125 -6.953125 C 6.941406 -6.648438 7.414062 -6.21875 7.75 -5.65625 C 8.082031 -5.09375 8.25 -4.445312 8.25 -3.71875 C 8.25 -2.988281 8.082031 -2.34375 7.75 -1.78125 C 7.414062 -1.21875 6.941406 -0.78125 6.328125 -0.46875 C 5.722656 -0.15625 5.03125 0 4.25 0 L 1.109375 0 Z M 4.1875 -0.921875 C 4.78125 -0.921875 5.304688 -1.035156 5.765625 -1.265625 C 6.222656 -1.503906 6.570312 -1.832031 6.8125 -2.25 C 7.0625 -2.675781 7.1875 -3.164062 7.1875 -3.71875 C 7.1875 -4.269531 7.0625 -4.753906 6.8125 -5.171875 C 6.570312 -5.585938 6.222656 -5.910156 5.765625 -6.140625 C 5.304688 -6.378906 4.78125 -6.5 4.1875 -6.5 L 2.171875 -6.5 L 2.171875 -0.921875 Z M 4.1875 -0.921875 "/></g></g></g><g fill="#000000" fill-opacity="1"><g transform="translate(244.36298, 211.558917)"><g><path d="M 4.1875 0.078125 C 3.195312 0.078125 2.425781 -0.203125 1.875 -0.765625 C 1.320312 -1.328125 1.046875 -2.140625 1.046875 -3.203125 L 1.046875 -7.421875 L 2.109375 -7.421875 L 2.109375 -3.25 C 2.109375 -1.65625 2.804688 -0.859375 4.203125 -0.859375 C 4.878906 -0.859375 5.394531 -1.050781 5.75 -1.4375 C 6.113281 -1.832031 6.296875 -2.4375 6.296875 -3.25 L 6.296875 -7.421875 L 7.328125 -7.421875 L 7.328125 -3.203125 C 7.328125 -2.140625 7.050781 -1.328125 6.5 -0.765625 C 5.945312 -0.203125 5.175781 0.078125 4.1875 0.078125 Z M 4.1875 0.078125 "/></g></g></g><g fill="#000000" fill-opacity="1"><g transform="translate(255.384464, 211.558917)"><g><path d="M 1.109375 -7.421875 L 2.171875 -7.421875 L 2.171875 -0.921875 L 6.203125 -0.921875 L 6.203125 0 L 1.109375 0 Z M 1.109375 -7.421875 "/></g></g></g><g fill="#000000" fill-opacity="1"><g transform="translate(264.316548, 211.558917)"><g><path d="M 1.109375 -7.421875 L 2.171875 -7.421875 L 2.171875 0 L 1.109375 0 Z M 1.109375 -7.421875 "/></g></g></g><g fill="#000000" fill-opacity="1"><g transform="translate(270.236486, 211.558917)"><g><path d="M 7.5 -7.421875 L 7.5 0 L 6.625 0 L 2.171875 -5.53125 L 2.171875 0 L 1.109375 0 L 1.109375 -7.421875 L 1.984375 -7.421875 L 6.4375 -1.890625 L 6.4375 -7.421875 Z M 7.5 -7.421875 "/></g></g></g><g fill="#000000" fill-opacity="1"><g transform="translate(281.480709, 211.558917)"><g><path d="M 6.265625 -3.75 L 7.28125 -3.75 L 7.28125 -0.859375 C 6.90625 -0.554688 6.472656 -0.320312 5.984375 -0.15625 C 5.503906 0 5 0.078125 4.46875 0.078125 C 3.71875 0.078125 3.039062 -0.0820312 2.4375 -0.40625 C 1.832031 -0.738281 1.359375 -1.191406 1.015625 -1.765625 C 0.679688 -2.335938 0.515625 -2.988281 0.515625 -3.71875 C 0.515625 -4.4375 0.679688 -5.082031 1.015625 -5.65625 C 1.359375 -6.238281 1.832031 -6.691406 2.4375 -7.015625 C 3.050781 -7.347656 3.734375 -7.515625 4.484375 -7.515625 C 5.078125 -7.515625 5.613281 -7.414062 6.09375 -7.21875 C 6.582031 -7.019531 7 -6.734375 7.34375 -6.359375 L 6.6875 -5.703125 C 6.09375 -6.273438 5.375 -6.5625 4.53125 -6.5625 C 3.96875 -6.5625 3.457031 -6.4375 3 -6.1875 C 2.550781 -5.945312 2.195312 -5.609375 1.9375 -5.171875 C 1.6875 -4.742188 1.5625 -4.257812 1.5625 -3.71875 C 1.5625 -3.175781 1.6875 -2.6875 1.9375 -2.25 C 2.195312 -1.820312 2.550781 -1.484375 3 -1.234375 C 3.457031 -0.984375 3.960938 -0.859375 4.515625 -0.859375 C 5.179688 -0.859375 5.765625 -1.019531 6.265625 -1.34375 Z M 6.265625 -3.75 "/></g></g></g></svg>