<svg width="143" height="24" viewBox="0 0 805 135" fill="#57586E" xmlns="http://www.w3.org/2000/svg">
<path style="fill:#010101; stroke:none;" d="M0 0L0 56L202 56L202 0L0 0z"/>
<path style="fill:#ffffff; stroke:none;" d="M54 2.55787C34.0599 7.79781 44.7493 37.3908 65 32.4668C85.7593 27.4192 74.6189 -2.86047 54 2.55787M121 2L108 32L123 29.2014L138 32C134.986 24.2322 129.279 4.59065 121 2M140 2L140 32L148 32L148 19L166 33L166 3L158 3L158 15L140 2M20 3L20 10L26 10L26 32L35 32L35 10L42 10L42 3L20 3M79 3L79 32L88 32L88 22C94.4237 29.53 96.9144 32 107 32L98.5965 17L107 3C97.5349 3 94.6387 5.31104 88 12L88 3L79 3M171 3L171 32L180 32L180 3L171 3z"/>
<path style="fill:#010101; stroke:none;" d="M56.1088 11.0285C47.4918 15.8287 55.4339 28.8978 63.7716 23.821C71.4006 19.1757 64.3728 6.42506 56.1088 11.0285M122 18L121 23L125 23L122 18z"/>
<path style="fill:#ffffff; stroke:none;" d="M3 43L3 53L5 53L5 43L3 43M7 43L7 53L10 53L10 49L11 49L16 53L16 43L13 43L13 47L7 43M17 43L20 46L20 53L23 53L26 43L17 43M27 43L27 53L34 53L34 51L30 51L30 50L34 50L34 47L30 47L30 46L34 46L34 43L27 43M36 43L36 53L39 50L40 50L44 53C43.2669 46.1814 43.8734 43.0933 36 43M46 43L46 53L48 50C55.9714 48.6977 52.3586 43.2071 46 43M55 43L55 53L59 50L63 53C62.5872 46.1258 62.7419 43.0918 55 43M65 43L65 53L72 53L72 51L68 51L68 50L72 50L72 47L68 47L68 46L72 46L72 43L65 43M73 43L76 46L76 53L79 53L82 43L73 43M83 43L83 53L90 53L90 51L86 51L86 50L90 50L90 47L86 47L86 46L90 46L90 43L83 43M92 43L92 53L95 50L96 50L100 53C99.2669 46.1814 99.8734 43.0933 92 43M114 44C97.2228 40.1904 112.888 61.1332 113.826 49.1304C113.958 47.4348 113.907 45.7019 114 44M125 49L119 51L118 47L125 47C122.104 41.7533 114.772 43.2547 116.337 49.892C117.716 55.7379 123.691 53.1407 125 49M127 43L127 53L129 50L132 50L135 53L135 43L132 43L132 47L129 47L129 43L127 43M137 43L137 53L144 53L144 51L140 51L140 50L144 50L144 47L140 47L140 46L144 46L144 43L137 43M146 43L146 53C156.623 52.8742 156.571 43.2563 146 43M156 43C156.01 55.5244 164.99 55.5244 165 43L162 43L162 51L159 51L159 43L156 43M167 43L167 53L173 53L173 51L169 51L169 43L167 43M175 43L175 53L177 53L177 43L175 43M179 43L179 53L182 53L182 49L183 49L188 53L188 43L185 43L185 47L179 43M199 53C198.999 51.358 199.098 49.6567 198.941 48.0193C197.756 35.6645 182.423 51.9923 194.975 53.4853C196.249 53.6369 197.768 53.1991 199 53z"/>
<path style="fill:#010101; stroke:none;" d="M39.6667 46.3333L40.3333 46.6667L39.6667 46.3333M48 46L48 47L51 47L48 46M58.6667 46.3333L59.3333 46.6667L58.6667 46.3333M95.6667 46.3333L96.3333 46.6667L95.6667 46.3333M110 46L111 47L110 46M149 46L149 51L151 46L149 46M192 47L196 51L196 46L192 47M108 49L111 51L108 49z"/>
</svg>